<svg width="872" height="158" viewBox="0 0 872 158" fill="none" xmlns="http://www.w3.org/2000/svg">
<path d="M2.772 39.108V0.628006H5.85V39.108H2.772Z" fill="#00A099"/>
<path d="M44.665 39.108L26.708 11.062C24.94 8.326 23.458 5.87401 22.147 3.36501C22.317 8.15401 22.545 20.582 22.545 28.107V39.109H19.467V0.629009H23.629L41.414 28.334C42.726 30.33 43.924 32.439 45.062 34.605C44.835 28.96 44.664 18.529 44.664 10.605V0.628006H47.742V39.108H44.665Z" fill="#00A099"/>
<path d="M72.571 3.13801V39.109H69.491V3.13801H57.292V0.628006H84.77V3.13801H72.571Z" fill="#00A099"/>
<path d="M94.286 39.108V0.628006H113.554V3.07901H97.365V18.015H112.244V20.468H97.365V36.601H113.554V39.109H94.286V39.108Z" fill="#00A099"/>
<path d="M144.784 39.108L131.216 21.38H127.681V39.109H124.603V0.685009C124.603 0.685009 129.392 0.458008 133.383 0.458008C140.736 0.458008 146.153 3.42101 146.153 10.319C146.153 17.446 140.795 20.809 134.696 21.264C134.696 21.264 136.405 23.145 138.059 25.311L148.776 39.108H144.784ZM127.68 18.927C127.68 18.927 130.359 18.986 132.697 18.986C139.424 18.986 142.959 15.849 142.959 10.834C142.959 5.59001 139.31 2.91001 132.926 2.91001C130.359 2.91001 127.68 3.08001 127.68 3.08001V18.927Z" fill="#00A099"/>
<path d="M183.909 39.108L165.952 11.061C164.185 8.325 162.702 5.873 161.392 3.364C161.562 8.153 161.79 20.581 161.79 28.106V39.108H158.712V0.627998H162.874L180.659 28.333C181.97 30.329 183.167 32.438 184.307 34.604C184.078 28.959 183.909 18.528 183.909 10.604V0.626999H186.987V39.107H183.909V39.108Z" fill="#00A099"/>
<path d="M225.331 39.108L221.683 29.018H203.497L199.792 39.108H196.485L211.135 0.628006H214.385L228.92 39.108H225.331ZM214.385 9.12201C213.7 7.24101 213.129 5.589 212.618 3.991H212.561C212.047 5.589 211.477 7.24101 210.85 9.00901L204.409 26.509H220.77L214.385 9.12201Z" fill="#00A099"/>
<path d="M244.999 3.13801V39.109H241.921V3.13801H229.722V0.628006H257.198V3.13801H244.999Z" fill="#00A099"/>
<path d="M266.714 39.108V0.628006H269.792V39.108H266.714Z" fill="#00A099"/>
<path d="M298.014 39.563C287.241 39.563 281.198 31.754 281.198 20.239C281.198 7.241 289.235 0.173004 298.927 0.173004C309.7 0.173004 315.743 7.98201 315.743 19.497C315.743 32.495 307.706 39.563 298.014 39.563ZM298.471 2.737C290.717 2.737 284.389 8.61001 284.389 19.497C284.389 29.759 289.122 36.999 298.471 36.999C306.223 36.999 312.551 31.128 312.551 20.183C312.552 9.978 307.819 2.737 298.471 2.737Z" fill="#00A099"/>
<path d="M352.358 39.108L334.401 11.061C332.635 8.325 331.153 5.873 329.84 3.364C330.012 8.153 330.24 20.581 330.24 28.106V39.108H327.162V0.627998H331.322L349.109 28.333C350.42 30.329 351.617 32.438 352.758 34.604C352.529 28.959 352.358 18.528 352.358 10.604V0.626999H355.438V39.107H352.358V39.108Z" fill="#00A099"/>
<path d="M393.78 39.108L390.131 29.018H371.947L368.24 39.108H364.933L379.585 0.628006H382.833L397.37 39.108H393.78ZM382.835 9.12201C382.151 7.24101 381.581 5.589 381.069 3.991H381.01C380.499 5.589 379.928 7.24101 379.301 9.00901L372.859 26.509H389.219L382.835 9.12201Z" fill="#00A099"/>
<path d="M406.87 39.108V0.628006H409.948V36.601H424.999V39.109H406.87V39.108Z" fill="#00A099"/>
<path d="M121.245 61.177C118.729 60.294 115.942 59.818 113.153 59.818C108.801 59.818 106.831 61.519 106.831 64.101C106.831 71.31 125.733 68.792 125.733 83.82C125.733 92.455 119.206 98.574 107.442 98.574C103.296 98.574 99.624 98.099 96.563 97.351L97.516 87.287C100.575 88.512 104.383 89.328 107.987 89.328C111.659 89.328 114.378 88.035 114.378 84.908C114.378 77.293 95.681 80.217 95.681 65.123C95.681 56.691 102.343 51.047 113.836 51.047C116.215 51.047 119.547 51.32 122.199 51.932L121.245 61.177Z" fill="#E74027"/>
<path d="M134.098 97.759V51.863H144.705V88.511H158.576V97.759H134.098Z" fill="#E74027"/>
<path d="M195.501 97.759L192.712 88.716H176.939L174.152 97.759H163.613L178.23 51.863H192.238L207.06 97.759H195.501ZM186.661 68.112C185.913 65.733 185.37 63.352 184.893 61.042H184.756C184.348 63.353 183.737 65.802 183.057 68.112L179.25 80.352H190.469L186.661 68.112Z" fill="#E74027"/>
<path d="M243.065 96.397C239.801 97.622 235.586 98.37 231.643 98.37C214.712 98.37 210.157 86.811 210.157 76.475C210.157 61.584 218.249 51.522 233.411 51.522C236.606 51.522 240.006 51.93 242.794 52.815L241.435 62.469C238.851 61.518 236.062 61.041 233.206 61.041C225.796 61.041 221.784 66.412 221.784 74.707C221.784 83.75 225.456 88.715 233.682 88.715C236.129 88.715 239.393 88.102 241.568 87.014L243.065 96.397Z" fill="#E74027"/>
<path d="M274.821 97.759L262.38 76.204V97.759H251.773V51.863H262.38V72.125L274.958 51.863H287.673L272.577 73.892L288.556 97.759H274.821Z" fill="#E74027"/>
<path d="M295.38 97.759V51.863H305.987V88.511H319.858V97.759H295.38Z" fill="#E74027"/>
<path d="M326.79 97.759V51.863H337.395V97.759H326.79Z" fill="#E74027"/>
<path d="M373.766 97.759L361.596 74.505C359.963 71.173 358.807 68.386 357.991 65.665C358.196 69.065 358.468 78.925 358.468 84.907V97.759H348.337V51.863H362.276L373.698 73.689C375.058 76.408 376.419 79.605 377.37 82.46C377.03 78.517 376.893 68.726 376.893 63.286V51.862H386.958V97.758H373.766V97.759Z" fill="#E74027"/>
<path d="M398.024 97.759V51.863H425.016V60.771H408.631V69.88H423.588V78.517H408.631V88.648H425.016V97.759H398.024Z" fill="#E74027"/>
<path d="M31.921 156.407L29.132 147.364H13.358L10.571 156.407H0.0320129L14.649 110.512H28.657L43.479 156.407H31.921ZM23.081 126.763C22.333 124.384 21.79 122.003 21.314 119.693H21.177C20.769 122.004 20.157 124.451 19.478 126.763L15.671 139.001H26.89L23.081 126.763Z" fill="#E74027"/>
<path d="M74.339 119.827C71.823 118.944 69.036 118.468 66.247 118.468C61.895 118.468 59.925 120.167 59.925 122.751C59.925 129.958 78.827 127.442 78.827 142.47C78.827 151.105 72.3 157.224 60.536 157.224C56.388 157.224 52.718 156.747 49.657 155.999L50.608 145.937C53.668 147.162 57.475 147.978 61.079 147.978C64.751 147.978 67.472 146.685 67.472 143.558C67.472 135.943 48.773 138.867 48.773 123.771C48.773 115.341 55.437 109.697 66.927 109.697C69.308 109.697 72.64 109.968 75.29 110.582L74.339 119.827Z" fill="#E74027"/>
<path d="M110.221 119.827C107.705 118.944 104.918 118.468 102.129 118.468C97.777 118.468 95.807 120.167 95.807 122.751C95.807 129.958 114.71 127.442 114.71 142.47C114.71 151.105 108.182 157.224 96.418 157.224C92.272 157.224 88.6 156.747 85.539 155.999L86.492 145.937C89.551 147.162 93.359 147.978 96.963 147.978C100.635 147.978 103.354 146.685 103.354 143.558C103.354 135.943 84.657 138.867 84.657 123.771C84.657 115.341 91.319 109.697 102.811 109.697C105.19 109.697 108.522 109.968 111.174 110.582L110.221 119.827Z" fill="#E74027"/>
<path d="M142.618 157.292C128.475 157.292 121.132 149.132 121.132 134.446C121.132 118.399 131.739 109.628 144.114 109.628C158.188 109.628 165.532 117.788 165.532 132.474C165.532 148.521 154.925 157.292 142.618 157.292ZM143.366 119.284C136.839 119.284 132.487 124.179 132.487 133.358C132.487 142.333 136.091 147.637 143.366 147.637C149.893 147.637 154.245 142.741 154.245 133.561C154.245 124.587 150.641 119.284 143.366 119.284Z" fill="#E74027"/>
<path d="M205.264 155.048C202.001 156.273 197.786 157.021 193.84 157.021C176.91 157.021 172.355 145.462 172.355 135.126C172.355 120.235 180.445 110.173 195.609 110.173C198.805 110.173 202.203 110.581 204.992 111.464L203.63 121.12C201.048 120.167 198.259 119.692 195.404 119.692C187.994 119.692 183.982 125.063 183.982 133.358C183.982 142.401 187.652 147.364 195.88 147.364C198.328 147.364 201.591 146.753 203.767 145.665L205.264 155.048Z" fill="#E74027"/>
<path d="M214.094 156.407V110.512H224.7V156.407H214.094Z" fill="#E74027"/>
<path d="M263.118 156.407L260.331 147.364H244.556L241.769 156.407H231.23L245.849 110.512H259.855L274.677 156.407H263.118ZM254.278 126.763C253.53 124.384 252.987 122.003 252.51 119.693H252.376C251.968 122.004 251.354 124.451 250.675 126.763L246.868 139.001H258.087L254.278 126.763Z" fill="#E74027"/>
<path d="M295.364 119.556V156.408H284.825V119.556H273.809V110.513H306.379V119.556H295.364Z" fill="#E74027"/>
<path d="M313.473 156.407V110.512H324.08V156.407H313.473Z" fill="#E74027"/>
<path d="M354.516 157.292C340.373 157.292 333.03 149.132 333.03 134.446C333.03 118.399 343.637 109.628 356.01 109.628C370.086 109.628 377.428 117.788 377.428 132.474C377.428 148.521 366.823 157.292 354.516 157.292ZM355.262 119.284C348.734 119.284 344.383 124.179 344.383 133.358C344.383 142.333 347.988 147.637 355.262 147.637C361.789 147.637 366.141 142.741 366.141 133.561C366.141 124.587 362.538 119.284 355.262 119.284Z" fill="#E74027"/>
<path d="M411.825 156.407L399.655 133.153C398.022 129.823 396.866 127.034 396.05 124.315C396.255 127.713 396.527 137.573 396.527 143.557V156.407H386.396V110.512H400.336L411.757 132.338C413.117 135.057 414.478 138.252 415.429 141.109C415.089 137.164 414.952 127.373 414.952 121.933V110.511H425.017V156.406H411.825V156.407Z" fill="#E74027"/>
<path d="M526.923 27.365V0.676003H446.267L526.923 27.365Z" fill="#00A099"/>
<path d="M681.835 78.627H724.154L770.155 0.674004H573.903C555.571 0.674004 540.204 13.334 536.043 30.383L681.835 78.627Z" fill="#00A099"/>
<path d="M779.449 110.93L836.545 97.424L779.449 0.675003L725.014 92.916L779.449 110.93Z" fill="#00A099"/>
<path d="M676.377 84.824L534.967 38.029C534.945 38.568 534.926 39.107 534.926 39.65C534.926 61.17 552.365 78.617 573.883 78.627H534.926V156.58H655.176V156.576C655.219 156.578 655.261 156.58 655.303 156.58C676.83 156.58 694.28 139.129 694.28 117.603C694.281 103.844 687.144 91.76 676.377 84.824Z" fill="#E74027"/>
<path d="M446.256 8.67401V156.58H526.923V35.367L446.256 8.67401Z" fill="#E74027"/>
<path d="M779.449 118.934L721.063 99.614L687.446 156.581C847.514 156.581 710.551 156.581 871.453 156.581L840.689 104.45L779.449 118.934Z" fill="#E74027"/>
</svg>
