<svg width="943" height="159" viewBox="0 0 943 159" fill="none" xmlns="http://www.w3.org/2000/svg">
<path d="M40.74 38.935V0.455002H43.818V38.935H40.74Z" fill="white"/>
<path d="M82.633 38.935L64.676 10.889C62.908 8.153 61.426 5.701 60.115 3.192C60.285 7.981 60.513 20.409 60.513 27.934V38.936H57.435V0.456005H61.597L79.382 28.161C80.694 30.157 81.892 32.266 83.03 34.432C82.803 28.787 82.632 18.356 82.632 10.432V0.455002H85.71V38.935H82.633Z" fill="white"/>
<path d="M110.539 2.965V38.936H107.459V2.965H95.26V0.455002H122.738V2.965H110.539Z" fill="white"/>
<path d="M132.254 38.935V0.455002H151.522V2.90601H135.333V17.842H150.212V20.295H135.333V36.428H151.522V38.936H132.254V38.935Z" fill="white"/>
<path d="M182.752 38.935L169.184 21.207H165.649V38.936H162.571V0.512005C162.571 0.512005 167.36 0.285004 171.351 0.285004C178.704 0.285004 184.121 3.248 184.121 10.146C184.121 17.273 178.763 20.636 172.664 21.091C172.664 21.091 174.373 22.972 176.027 25.138L186.744 38.935H182.752ZM165.648 18.754C165.648 18.754 168.327 18.813 170.665 18.813C177.392 18.813 180.927 15.676 180.927 10.661C180.927 5.417 177.278 2.73701 170.894 2.73701C168.327 2.73701 165.648 2.90701 165.648 2.90701V18.754Z" fill="white"/>
<path d="M221.877 38.935L203.92 10.888C202.153 8.15199 200.67 5.69999 199.36 3.19099C199.53 7.97999 199.758 20.408 199.758 27.933V38.935H196.68V0.454994H200.842L218.627 28.16C219.938 30.156 221.135 32.265 222.275 34.431C222.046 28.786 221.877 18.355 221.877 10.431V0.453995H224.955V38.934H221.877V38.935Z" fill="white"/>
<path d="M263.299 38.935L259.651 28.845H241.465L237.76 38.935H234.453L249.103 0.455002H252.353L266.888 38.935H263.299ZM252.353 8.94901C251.668 7.06801 251.097 5.416 250.586 3.818H250.529C250.015 5.416 249.445 7.06801 248.818 8.83601L242.377 26.336H258.738L252.353 8.94901Z" fill="white"/>
<path d="M282.967 2.965V38.936H279.889V2.965H267.69V0.455002H295.166V2.965H282.967Z" fill="white"/>
<path d="M304.682 38.935V0.455002H307.76V38.935H304.682Z" fill="white"/>
<path d="M335.982 39.39C325.209 39.39 319.166 31.581 319.166 20.066C319.166 7.068 327.203 0 336.895 0C347.668 0 353.711 7.809 353.711 19.324C353.711 32.322 345.674 39.39 335.982 39.39ZM336.439 2.564C328.685 2.564 322.357 8.437 322.357 19.324C322.357 29.586 327.09 36.826 336.439 36.826C344.191 36.826 350.519 30.955 350.519 20.01C350.52 9.805 345.787 2.564 336.439 2.564Z" fill="white"/>
<path d="M390.326 38.935L372.369 10.888C370.603 8.15199 369.121 5.69999 367.808 3.19099C367.98 7.97999 368.208 20.408 368.208 27.933V38.935H365.13V0.454994H369.29L387.077 28.16C388.388 30.156 389.585 32.265 390.726 34.431C390.497 28.786 390.326 18.355 390.326 10.431V0.453995H393.406V38.934H390.326V38.935Z" fill="white"/>
<path d="M431.748 38.935L428.099 28.845H409.915L406.208 38.935H402.901L417.553 0.455002H420.801L435.338 38.935H431.748ZM420.803 8.94901C420.119 7.06801 419.549 5.416 419.037 3.818H418.978C418.467 5.416 417.896 7.06801 417.269 8.83601L410.827 26.336H427.187L420.803 8.94901Z" fill="white"/>
<path d="M444.838 38.935V0.455002H447.916V36.428H462.967V38.936H444.838V38.935Z" fill="white"/>
<path d="M67.564 61.13C65.048 60.247 62.261 59.771 59.472 59.771C55.12 59.771 53.15 61.472 53.15 64.054C53.15 71.263 72.052 68.745 72.052 83.773C72.052 92.408 65.525 98.527 53.761 98.527C49.615 98.527 45.943 98.052 42.882 97.304L43.835 87.24C46.894 88.465 50.702 89.281 54.306 89.281C57.978 89.281 60.697 87.988 60.697 84.861C60.697 77.246 42 80.17 42 65.076C42 56.644 48.662 51 60.155 51C62.534 51 65.866 51.273 68.518 51.885L67.564 61.13Z" fill="white"/>
<path d="M80.417 97.712V51.816H91.024V88.464H104.895V97.712H80.417Z" fill="white"/>
<path d="M141.82 97.712L139.031 88.669H123.258L120.471 97.712H109.932L124.549 51.816H138.557L153.379 97.712H141.82ZM132.98 68.065C132.232 65.686 131.689 63.305 131.212 60.995H131.075C130.667 63.306 130.056 65.755 129.376 68.065L125.569 80.305H136.788L132.98 68.065Z" fill="white"/>
<path d="M189.384 96.35C186.12 97.575 181.905 98.323 177.962 98.323C161.031 98.323 156.476 86.764 156.476 76.428C156.476 61.537 164.568 51.475 179.73 51.475C182.925 51.475 186.325 51.883 189.113 52.768L187.754 62.422C185.17 61.471 182.381 60.994 179.525 60.994C172.115 60.994 168.103 66.365 168.103 74.66C168.103 83.703 171.775 88.668 180.001 88.668C182.448 88.668 185.712 88.055 187.887 86.967L189.384 96.35Z" fill="white"/>
<path d="M221.14 97.712L208.699 76.157V97.712H198.092V51.816H208.699V72.078L221.277 51.816H233.992L218.896 73.845L234.875 97.712H221.14Z" fill="white"/>
<path d="M241.699 97.712V51.816H252.306V88.464H266.177V97.712H241.699Z" fill="white"/>
<path d="M273.109 97.712V51.816H283.714V97.712H273.109Z" fill="white"/>
<path d="M320.085 97.712L307.915 74.458C306.282 71.126 305.126 68.339 304.31 65.618C304.515 69.018 304.787 78.878 304.787 84.86V97.712H294.656V51.816H308.595L320.017 73.642C321.377 76.361 322.738 79.558 323.689 82.413C323.349 78.47 323.212 68.679 323.212 63.239V51.815H333.277V97.711H320.085V97.712Z" fill="white"/>
<path d="M344.343 97.712V51.816H371.335V60.724H354.95V69.833H369.907V78.47H354.95V88.601H371.335V97.712H344.343Z" fill="white"/>
<path d="M63.889 157.779L61.1 148.736H45.326L42.539 157.779H32L46.617 111.884H60.625L75.447 157.779H63.889ZM55.049 128.135C54.301 125.756 53.758 123.375 53.282 121.065H53.145C52.737 123.376 52.125 125.823 51.446 128.135L47.639 140.373H58.858L55.049 128.135Z" fill="white"/>
<path d="M106.307 121.199C103.791 120.316 101.004 119.84 98.215 119.84C93.863 119.84 91.893 121.539 91.893 124.123C91.893 131.33 110.795 128.814 110.795 143.842C110.795 152.477 104.268 158.596 92.504 158.596C88.356 158.596 84.686 158.119 81.625 157.371L82.576 147.309C85.636 148.534 89.443 149.35 93.047 149.35C96.719 149.35 99.44 148.057 99.44 144.93C99.44 137.315 80.741 140.239 80.741 125.143C80.741 116.713 87.405 111.069 98.895 111.069C101.276 111.069 104.608 111.34 107.258 111.954L106.307 121.199Z" fill="white"/>
<path d="M142.189 121.199C139.673 120.316 136.886 119.84 134.097 119.84C129.745 119.84 127.775 121.539 127.775 124.123C127.775 131.33 146.678 128.814 146.678 143.842C146.678 152.477 140.15 158.596 128.386 158.596C124.24 158.596 120.568 158.119 117.507 157.371L118.46 147.309C121.519 148.534 125.327 149.35 128.931 149.35C132.603 149.35 135.322 148.057 135.322 144.93C135.322 137.315 116.625 140.239 116.625 125.143C116.625 116.713 123.287 111.069 134.779 111.069C137.158 111.069 140.49 111.34 143.142 111.954L142.189 121.199Z" fill="white"/>
<path d="M174.586 158.664C160.443 158.664 153.1 150.504 153.1 135.818C153.1 119.771 163.707 111 176.082 111C190.156 111 197.5 119.16 197.5 133.846C197.5 149.893 186.893 158.664 174.586 158.664ZM175.334 120.656C168.807 120.656 164.455 125.551 164.455 134.73C164.455 143.705 168.059 149.009 175.334 149.009C181.861 149.009 186.213 144.113 186.213 134.933C186.213 125.959 182.609 120.656 175.334 120.656Z" fill="white"/>
<path d="M237.232 156.42C233.969 157.645 229.754 158.393 225.808 158.393C208.878 158.393 204.323 146.834 204.323 136.498C204.323 121.607 212.413 111.545 227.577 111.545C230.773 111.545 234.171 111.953 236.96 112.836L235.598 122.492C233.016 121.539 230.227 121.064 227.372 121.064C219.962 121.064 215.95 126.435 215.95 134.73C215.95 143.773 219.62 148.736 227.848 148.736C230.296 148.736 233.559 148.125 235.735 147.037L237.232 156.42Z" fill="white"/>
<path d="M246.062 157.779V111.884H256.668V157.779H246.062Z" fill="white"/>
<path d="M295.086 157.779L292.299 148.736H276.524L273.737 157.779H263.198L277.817 111.884H291.823L306.645 157.779H295.086ZM286.246 128.135C285.498 125.756 284.955 123.375 284.478 121.065H284.344C283.936 123.376 283.322 125.823 282.643 128.135L278.836 140.373H290.055L286.246 128.135Z" fill="white"/>
<path d="M327.332 120.928V157.78H316.793V120.928H305.777V111.885H338.347V120.928H327.332Z" fill="white"/>
<path d="M345.441 157.779V111.884H356.048V157.779H345.441Z" fill="white"/>
<path d="M386.484 158.664C372.341 158.664 364.998 150.504 364.998 135.818C364.998 119.771 375.605 111 387.978 111C402.054 111 409.396 119.16 409.396 133.846C409.396 149.893 398.791 158.664 386.484 158.664ZM387.23 120.656C380.702 120.656 376.351 125.551 376.351 134.73C376.351 143.705 379.956 149.009 387.23 149.009C393.757 149.009 398.109 144.113 398.109 134.933C398.109 125.959 394.506 120.656 387.23 120.656Z" fill="white"/>
<path d="M443.793 157.779L431.623 134.525C429.99 131.195 428.834 128.406 428.018 125.687C428.223 129.085 428.495 138.945 428.495 144.929V157.779H418.364V111.884H432.304L443.725 133.71C445.085 136.429 446.446 139.624 447.397 142.481C447.057 138.536 446.92 128.745 446.92 123.305V111.883H456.985V157.778H443.793V157.779Z" fill="white"/>
<path d="M565.634 28.0695V1.38051H484.978L565.634 28.0695Z" fill="white"/>
<path d="M720.546 79.3315H762.865L808.866 1.37851H612.614C594.282 1.37851 578.915 14.0385 574.754 31.0875L720.546 79.3315Z" fill="white"/>
<path d="M818.16 111.635L875.256 98.1285L818.16 1.37952L763.725 93.6205L818.16 111.635Z" fill="white"/>
<path d="M715.088 85.5285L573.678 38.7335C573.656 39.2725 573.637 39.8115 573.637 40.3545C573.637 61.8745 591.076 79.3215 612.594 79.3315H573.637V157.285H693.887V157.281C693.93 157.283 693.972 157.285 694.014 157.285C715.541 157.285 732.991 139.834 732.991 118.308C732.992 104.549 725.855 92.4645 715.088 85.5285Z" fill="white"/>
<path d="M484.967 9.37851V157.285H565.634V36.0715L484.967 9.37851Z" fill="white"/>
<path d="M818.16 119.639L759.774 100.319L726.157 157.285C886.225 157.285 749.262 157.285 910.164 157.285L879.4 105.155L818.16 119.639Z" fill="white"/>
</svg>
