<svg width="495" height="337" viewBox="0 0 495 337" fill="none" xmlns="http://www.w3.org/2000/svg">
<path d="M115.552 26.691V0.0019989H34.896L115.552 26.691Z" fill="#00A099"/>
<path d="M270.464 77.953H312.783L358.784 0H162.532C144.2 0 128.833 12.66 124.672 29.709L270.464 77.953Z" fill="#00A099"/>
<path d="M368.078 110.256L425.174 96.75L368.078 0.00100708L313.643 92.242L368.078 110.256Z" fill="#00A099"/>
<path d="M265.006 84.15L123.596 37.355C123.574 37.894 123.555 38.433 123.555 38.976C123.555 60.496 140.994 77.943 162.512 77.953H123.555V155.906H243.805V155.902C243.848 155.904 243.89 155.906 243.932 155.906C265.459 155.906 282.909 138.455 282.909 116.929C282.91 103.17 275.773 91.086 265.006 84.15Z" fill="#E74027"/>
<path d="M34.885 8V155.906H115.552V34.693L34.885 8Z" fill="#E74027"/>
<path d="M368.078 118.26L309.692 98.94L276.075 155.907C436.143 155.907 299.18 155.907 460.082 155.907L429.318 103.776L368.078 118.26Z" fill="#E74027"/>
<path d="M40.74 216.842V178.362H43.818V216.842H40.74Z" fill="#00A099"/>
<path d="M82.633 216.842L64.676 188.796C62.908 186.06 61.426 183.608 60.115 181.099C60.285 185.888 60.513 198.316 60.513 205.841V216.843H57.435V178.363H61.597L79.382 206.068C80.694 208.064 81.892 210.173 83.03 212.339C82.803 206.694 82.632 196.263 82.632 188.339V178.362H85.71V216.842H82.633Z" fill="#00A099"/>
<path d="M110.539 180.872V216.843H107.459V180.872H95.26V178.362H122.738V180.872H110.539Z" fill="#00A099"/>
<path d="M132.254 216.842V178.362H151.522V180.813H135.333V195.749H150.212V198.202H135.333V214.335H151.522V216.843H132.254V216.842Z" fill="#00A099"/>
<path d="M182.752 216.842L169.184 199.114H165.649V216.843H162.571V178.419C162.571 178.419 167.36 178.192 171.351 178.192C178.704 178.192 184.121 181.155 184.121 188.053C184.121 195.18 178.763 198.543 172.664 198.998C172.664 198.998 174.373 200.879 176.027 203.045L186.744 216.842H182.752ZM165.648 196.661C165.648 196.661 168.327 196.72 170.665 196.72C177.392 196.72 180.927 193.583 180.927 188.568C180.927 183.324 177.278 180.644 170.894 180.644C168.327 180.644 165.648 180.814 165.648 180.814V196.661Z" fill="#00A099"/>
<path d="M221.877 216.842L203.92 188.795C202.153 186.059 200.67 183.607 199.36 181.098C199.53 185.887 199.758 198.315 199.758 205.84V216.842H196.68V178.362H200.842L218.627 206.067C219.938 208.063 221.135 210.172 222.275 212.338C222.046 206.693 221.877 196.262 221.877 188.338V178.361H224.955V216.841H221.877V216.842Z" fill="#00A099"/>
<path d="M263.299 216.842L259.651 206.752H241.465L237.76 216.842H234.453L249.103 178.362H252.353L266.888 216.842H263.299ZM252.353 186.856C251.668 184.975 251.097 183.323 250.586 181.725H250.529C250.015 183.323 249.445 184.975 248.818 186.743L242.377 204.243H258.738L252.353 186.856Z" fill="#00A099"/>
<path d="M282.967 180.872V216.843H279.889V180.872H267.69V178.362H295.166V180.872H282.967Z" fill="#00A099"/>
<path d="M304.682 216.842V178.362H307.76V216.842H304.682Z" fill="#00A099"/>
<path d="M335.982 217.297C325.209 217.297 319.166 209.488 319.166 197.973C319.166 184.975 327.203 177.907 336.895 177.907C347.668 177.907 353.711 185.716 353.711 197.231C353.711 210.229 345.674 217.297 335.982 217.297ZM336.439 180.471C328.685 180.471 322.357 186.344 322.357 197.231C322.357 207.493 327.09 214.733 336.439 214.733C344.191 214.733 350.519 208.862 350.519 197.917C350.52 187.712 345.787 180.471 336.439 180.471Z" fill="#00A099"/>
<path d="M390.326 216.842L372.369 188.795C370.603 186.059 369.121 183.607 367.808 181.098C367.98 185.887 368.208 198.315 368.208 205.84V216.842H365.13V178.362H369.29L387.077 206.067C388.388 208.063 389.585 210.172 390.726 212.338C390.497 206.693 390.326 196.262 390.326 188.338V178.361H393.406V216.841H390.326V216.842Z" fill="#00A099"/>
<path d="M431.748 216.842L428.099 206.752H409.915L406.208 216.842H402.901L417.553 178.362H420.801L435.338 216.842H431.748ZM420.803 186.856C420.119 184.975 419.549 183.323 419.037 181.725H418.978C418.467 183.323 417.896 184.975 417.269 186.743L410.827 204.243H427.187L420.803 186.856Z" fill="#00A099"/>
<path d="M444.838 216.842V178.362H447.916V214.335H462.967V216.843H444.838V216.842Z" fill="#00A099"/>
<path d="M67.564 239.037C65.048 238.154 62.261 237.678 59.472 237.678C55.12 237.678 53.15 239.379 53.15 241.961C53.15 249.17 72.052 246.652 72.052 261.68C72.052 270.315 65.525 276.434 53.761 276.434C49.615 276.434 45.943 275.959 42.882 275.211L43.835 265.147C46.894 266.372 50.702 267.188 54.306 267.188C57.978 267.188 60.697 265.895 60.697 262.768C60.697 255.153 42 258.077 42 242.983C42 234.551 48.662 228.907 60.155 228.907C62.534 228.907 65.866 229.18 68.518 229.792L67.564 239.037Z" fill="#E74027"/>
<path d="M80.417 275.619V229.723H91.024V266.371H104.895V275.619H80.417Z" fill="#E74027"/>
<path d="M141.82 275.619L139.031 266.576H123.258L120.471 275.619H109.932L124.549 229.723H138.557L153.379 275.619H141.82ZM132.98 245.972C132.232 243.593 131.689 241.212 131.212 238.902H131.075C130.667 241.213 130.056 243.662 129.376 245.972L125.569 258.212H136.788L132.98 245.972Z" fill="#E74027"/>
<path d="M189.384 274.257C186.12 275.482 181.905 276.23 177.962 276.23C161.031 276.23 156.476 264.671 156.476 254.335C156.476 239.444 164.568 229.382 179.73 229.382C182.925 229.382 186.325 229.79 189.113 230.675L187.754 240.329C185.17 239.378 182.381 238.901 179.525 238.901C172.115 238.901 168.103 244.272 168.103 252.567C168.103 261.61 171.775 266.575 180.001 266.575C182.448 266.575 185.712 265.962 187.887 264.874L189.384 274.257Z" fill="#E74027"/>
<path d="M221.14 275.619L208.699 254.064V275.619H198.092V229.723H208.699V249.985L221.277 229.723H233.992L218.896 251.752L234.875 275.619H221.14Z" fill="#E74027"/>
<path d="M241.699 275.619V229.723H252.306V266.371H266.177V275.619H241.699Z" fill="#E74027"/>
<path d="M273.109 275.619V229.723H283.714V275.619H273.109Z" fill="#E74027"/>
<path d="M320.085 275.619L307.915 252.365C306.282 249.033 305.126 246.246 304.31 243.525C304.515 246.925 304.787 256.785 304.787 262.767V275.619H294.656V229.723H308.595L320.017 251.549C321.377 254.268 322.738 257.465 323.689 260.32C323.349 256.377 323.212 246.586 323.212 241.146V229.722H333.277V275.618H320.085V275.619Z" fill="#E74027"/>
<path d="M344.343 275.619V229.723H371.335V238.631H354.95V247.74H369.907V256.377H354.95V266.508H371.335V275.619H344.343Z" fill="#E74027"/>
<path d="M63.889 335.686L61.1 326.643H45.326L42.539 335.686H32L46.617 289.791H60.625L75.447 335.686H63.889ZM55.049 306.042C54.301 303.663 53.758 301.282 53.282 298.972H53.145C52.737 301.283 52.125 303.73 51.446 306.042L47.639 318.28H58.858L55.049 306.042Z" fill="#E74027"/>
<path d="M106.307 299.106C103.791 298.223 101.004 297.747 98.215 297.747C93.863 297.747 91.893 299.446 91.893 302.03C91.893 309.237 110.795 306.721 110.795 321.749C110.795 330.384 104.268 336.503 92.504 336.503C88.356 336.503 84.686 336.026 81.625 335.278L82.576 325.216C85.636 326.441 89.443 327.257 93.047 327.257C96.719 327.257 99.44 325.964 99.44 322.837C99.44 315.222 80.741 318.146 80.741 303.05C80.741 294.62 87.405 288.976 98.895 288.976C101.276 288.976 104.608 289.247 107.258 289.861L106.307 299.106Z" fill="#E74027"/>
<path d="M142.189 299.106C139.673 298.223 136.886 297.747 134.097 297.747C129.745 297.747 127.775 299.446 127.775 302.03C127.775 309.237 146.678 306.721 146.678 321.749C146.678 330.384 140.15 336.503 128.386 336.503C124.24 336.503 120.568 336.026 117.507 335.278L118.46 325.216C121.519 326.441 125.327 327.257 128.931 327.257C132.603 327.257 135.322 325.964 135.322 322.837C135.322 315.222 116.625 318.146 116.625 303.05C116.625 294.62 123.287 288.976 134.779 288.976C137.158 288.976 140.49 289.247 143.142 289.861L142.189 299.106Z" fill="#E74027"/>
<path d="M174.586 336.571C160.443 336.571 153.1 328.411 153.1 313.725C153.1 297.678 163.707 288.907 176.082 288.907C190.156 288.907 197.5 297.067 197.5 311.753C197.5 327.8 186.893 336.571 174.586 336.571ZM175.334 298.563C168.807 298.563 164.455 303.458 164.455 312.637C164.455 321.612 168.059 326.916 175.334 326.916C181.861 326.916 186.213 322.02 186.213 312.84C186.213 303.866 182.609 298.563 175.334 298.563Z" fill="#E74027"/>
<path d="M237.232 334.327C233.969 335.552 229.754 336.3 225.808 336.3C208.878 336.3 204.323 324.741 204.323 314.405C204.323 299.514 212.413 289.452 227.577 289.452C230.773 289.452 234.171 289.86 236.96 290.743L235.598 300.399C233.016 299.446 230.227 298.971 227.372 298.971C219.962 298.971 215.95 304.342 215.95 312.637C215.95 321.68 219.62 326.643 227.848 326.643C230.296 326.643 233.559 326.032 235.735 324.944L237.232 334.327Z" fill="#E74027"/>
<path d="M246.062 335.686V289.791H256.668V335.686H246.062Z" fill="#E74027"/>
<path d="M295.086 335.686L292.299 326.643H276.524L273.737 335.686H263.198L277.817 289.791H291.823L306.645 335.686H295.086ZM286.246 306.042C285.498 303.663 284.955 301.282 284.478 298.972H284.344C283.936 301.283 283.322 303.73 282.643 306.042L278.836 318.28H290.055L286.246 306.042Z" fill="#E74027"/>
<path d="M327.332 298.835V335.687H316.793V298.835H305.777V289.792H338.347V298.835H327.332Z" fill="#E74027"/>
<path d="M345.441 335.686V289.791H356.048V335.686H345.441Z" fill="#E74027"/>
<path d="M386.484 336.571C372.341 336.571 364.998 328.411 364.998 313.725C364.998 297.678 375.605 288.907 387.978 288.907C402.054 288.907 409.396 297.067 409.396 311.753C409.396 327.8 398.791 336.571 386.484 336.571ZM387.23 298.563C380.702 298.563 376.351 303.458 376.351 312.637C376.351 321.612 379.956 326.916 387.23 326.916C393.757 326.916 398.109 322.02 398.109 312.84C398.109 303.866 394.506 298.563 387.23 298.563Z" fill="#E74027"/>
<path d="M443.793 335.686L431.623 312.432C429.99 309.102 428.834 306.313 428.018 303.594C428.223 306.992 428.495 316.852 428.495 322.836V335.686H418.364V289.791H432.304L443.725 311.617C445.085 314.336 446.446 317.531 447.397 320.388C447.057 316.443 446.92 306.652 446.92 301.212V289.79H456.985V335.685H443.793V335.686Z" fill="#E74027"/>
</svg>
